# xmcd
#
# Track frame offsets:
#	150
#	12420
#	35130
#	46282
#	60640
#	74180
#	89525
#	101850
#	115307
#	125482
#	140317
#	154925
#
# Disc length: 2332 seconds
#
# Revision: 1
# Processed by: cddbd v1.4PL0 Copyright (c) Steve Scherf et al.
# Submitted via: EasyCDDAExtractor 6.2.0.3
#
DISCID=b5091a0c
DTITLE=Saltcastle Bullwashers - B.T. (Coal Train)
DYEAR=1900
DGENRE=
TTITLE0=Bullie's Breakdown
TTITLE1=Marie
TTITLE2=Honkey Tonk Girl
TTITLE3=My Sweetheart
TTITLE4=D.D. Man
TTITLE5=Tiny Little Baby
TTITLE6=B.T. (Coal Train)
TTITLE7=Only For Three Days
TTITLE8=You're My Number One
TTITLE9=You're Never Been This Far Before
TTITLE10=Sorry, But I Just Play Country Music
TTITLE11=Leaving On A Jet Plane
EXTD=
EXTT0=
EXTT1=
EXTT2=
EXTT3=
EXTT4=
EXTT5=
EXTT6=
EXTT7=
EXTT8=
EXTT9=
EXTT10=
EXTT11=
PLAYORDER=
